<svg width="21" height="20" viewBox="0 0 21 20" fill="none" xmlns="http://www.w3.org/2000/svg">
<path d="M7.80826 12.025L9.14993 12.625C10.0083 13.0083 10.9916 13.0083 11.8583 12.625L13.1999 12.025C14.3999 11.4916 15.5083 12.9416 14.6749 13.9583L11.7916 17.4833C11.0833 18.35 9.92493 18.35 9.20826 17.4833L6.33326 13.9583C5.4916 12.9416 6.59993 11.4916 7.80826 12.025Z" fill="white"/>
<path d="M7.64156 9.72501C7.39156 9.90834 7.4249 10.2917 7.70823 10.4333L9.66657 11.4083C10.1249 11.6417 10.8666 11.6417 11.3166 11.4083L13.2749 10.4333C13.5499 10.2917 13.5832 9.91667 13.3416 9.72501L10.7499 7.77501C10.5999 7.66667 10.3999 7.66667 10.2499 7.77501L7.64156 9.72501Z" fill="white"/>
<path d="M15.4 6.86667L11.925 2.53333C11.8583 2.45 11.7833 2.375 11.7083 2.3C11.4917 2.09167 11.1833 2.28333 11.1833 2.58333V6.16667C11.1833 6.3 11.2417 6.425 11.35 6.5L14.8083 9.1L14.9583 9.20833C15.1083 9.31667 15.3167 9.31667 15.4417 9.18333C16.025 8.55 16.0167 7.63333 15.4 6.86667Z" fill="white"/>
<path d="M5.59163 6.94166L9.04996 2.54166C9.11663 2.45833 9.1833 2.38333 9.2583 2.30833C9.47496 2.09999 9.78329 2.28333 9.78329 2.59166V6.23333C9.78329 6.36666 9.72496 6.48333 9.61663 6.56666L6.17496 9.20833L6.03329 9.31666C5.88329 9.42499 5.67496 9.42499 5.54163 9.28333C4.97496 8.64166 4.98329 7.72499 5.59163 6.94166Z" fill="white"/>
</svg>
