<svg width="25" height="24" viewBox="0 0 25 24" fill="none" xmlns="http://www.w3.org/2000/svg">
<path d="M19.7793 7.5H16.7793V5.25C16.7793 4.05653 16.3052 2.91193 15.4613 2.06802C14.6174 1.22411 13.4728 0.75 12.2793 0.75C11.0858 0.75 9.94123 1.22411 9.09732 2.06802C8.2534 2.91193 7.7793 4.05653 7.7793 5.25V7.5H4.7793C4.38147 7.5 3.99994 7.65804 3.71864 7.93934C3.43733 8.22064 3.2793 8.60218 3.2793 9V19.5C3.2793 19.8978 3.43733 20.2794 3.71864 20.5607C3.99994 20.842 4.38147 21 4.7793 21H19.7793C20.1771 21 20.5587 20.842 20.84 20.5607C21.1213 20.2794 21.2793 19.8978 21.2793 19.5V9C21.2793 8.60218 21.1213 8.22064 20.84 7.93934C20.5587 7.65804 20.1771 7.5 19.7793 7.5ZM9.2793 5.25C9.2793 4.45435 9.59537 3.69129 10.158 3.12868C10.7206 2.56607 11.4836 2.25 12.2793 2.25C13.0749 2.25 13.838 2.56607 14.4006 3.12868C14.9632 3.69129 15.2793 4.45435 15.2793 5.25V7.5H9.2793V5.25ZM19.7793 19.5H4.7793V9H19.7793V19.5ZM13.4043 14.25C13.4043 14.4725 13.3383 14.69 13.2147 14.875C13.0911 15.06 12.9154 15.2042 12.7098 15.2894C12.5042 15.3745 12.278 15.3968 12.0598 15.3534C11.8416 15.31 11.6411 15.2028 11.4838 15.0455C11.3265 14.8882 11.2193 14.6877 11.1759 14.4695C11.1325 14.2512 11.1548 14.025 11.2399 13.8195C11.3251 13.6139 11.4693 13.4382 11.6543 13.3146C11.8393 13.191 12.0568 13.125 12.2793 13.125C12.5777 13.125 12.8638 13.2435 13.0748 13.4545C13.2858 13.6655 13.4043 13.9516 13.4043 14.25Z" fill="white"/>
</svg>
