<svg width="16" height="17" viewBox="0 0 16 17" fill="none" xmlns="http://www.w3.org/2000/svg">
<path d="M14.8537 7.14687L9.85371 2.14687C9.78382 2.0769 9.69475 2.02923 9.59777 2.00989C9.50078 1.99054 9.40024 2.00039 9.30886 2.03819C9.21747 2.07599 9.13935 2.14004 9.08436 2.22224C9.02938 2.30444 9.00001 2.4011 8.99996 2.5V5.02187C7.37871 5.16062 5.58809 5.95437 4.11496 7.20375C2.34121 8.70875 1.23684 10.6481 1.00496 12.6644C0.986842 12.8211 1.01863 12.9796 1.09579 13.1172C1.17295 13.2549 1.29157 13.3647 1.43475 13.431C1.57793 13.4973 1.73838 13.5168 1.89328 13.4867C2.04817 13.4565 2.18961 13.3783 2.29746 13.2631C2.98496 12.5312 5.43121 10.2169 8.99996 10.0131V12.5C9.00001 12.5989 9.02938 12.6956 9.08436 12.7778C9.13935 12.86 9.21747 12.924 9.30886 12.9618C9.40024 12.9996 9.50078 13.0095 9.59777 12.9901C9.69475 12.9708 9.78382 12.9231 9.85371 12.8531L14.8537 7.85312C14.9472 7.75939 14.9997 7.6324 14.9997 7.5C14.9997 7.3676 14.9472 7.24061 14.8537 7.14687ZM9.99996 11.2931V9.5C9.99996 9.36739 9.94728 9.24021 9.85352 9.14644C9.75975 9.05268 9.63257 9 9.49996 9C7.74496 9 6.03559 9.45812 4.41934 10.3625C3.59618 10.8251 2.82922 11.3813 2.13371 12.02C2.49621 10.53 3.40996 9.11312 4.76184 7.96625C6.21309 6.73562 7.98434 6 9.49996 6C9.63257 6 9.75975 5.94732 9.85352 5.85355C9.94728 5.75978 9.99996 5.63261 9.99996 5.5V3.7075L13.7931 7.5L9.99996 11.2931Z" fill="white"/>
</svg>
