<svg width="16" height="16" viewBox="0 0 16 16" fill="none" xmlns="http://www.w3.org/2000/svg">
<path d="M14.3044 1.63688C14.227 1.56999 14.1327 1.5255 14.0318 1.50821C13.9309 1.49092 13.8272 1.50148 13.7319 1.53876L1.06568 6.49563C0.886166 6.56543 0.73419 6.69166 0.632628 6.85531C0.531066 7.01896 0.485415 7.21118 0.502547 7.40302C0.51968 7.59486 0.598668 7.77594 0.727622 7.919C0.856575 8.06207 1.02851 8.15937 1.21755 8.19626L4.49943 8.84063V12.5C4.49878 12.6993 4.55801 12.8943 4.66945 13.0595C4.78089 13.2248 4.93939 13.3528 5.12443 13.4269C5.30917 13.5023 5.51234 13.5204 5.70751 13.4789C5.90269 13.4373 6.08084 13.3379 6.2188 13.1938L7.8013 11.5525L10.3119 13.75C10.4931 13.9107 10.7267 13.9996 10.9688 14C11.0749 13.9999 11.1803 13.9833 11.2813 13.9506C11.4463 13.8983 11.5946 13.8036 11.7116 13.6761C11.8287 13.5486 11.9102 13.3926 11.9482 13.2238L14.4851 2.18751C14.5077 2.08798 14.5029 1.98414 14.4711 1.88715C14.4393 1.79015 14.3817 1.70363 14.3044 1.63688ZM10.4832 3.88688L4.8838 7.89688L1.7838 7.28876L10.4832 3.88688ZM5.49943 12.5V9.53251L7.0488 10.8913L5.49943 12.5ZM10.9701 13L5.80255 8.46876L13.2401 3.13813L10.9701 13Z" fill="white"/>
</svg>
