<svg width="16" height="16" viewBox="0 0 16 16" fill="none" xmlns="http://www.w3.org/2000/svg">
<path d="M13.422 13.2319L9.5095 7.08313L13.3701 2.83625C13.4574 2.73783 13.5024 2.60896 13.4954 2.47758C13.4883 2.3462 13.4297 2.2229 13.3324 2.13441C13.235 2.04592 13.1067 1.99938 12.9752 2.00487C12.8438 2.01036 12.7198 2.06745 12.6301 2.16375L8.95263 6.20875L6.422 2.23188C6.37687 2.16085 6.31455 2.10236 6.24081 2.06182C6.16706 2.02129 6.08428 2.00003 6.00013 2H3.00013C2.91048 1.99996 2.82246 2.02402 2.74531 2.06966C2.66815 2.11531 2.60468 2.18086 2.56155 2.25945C2.51842 2.33804 2.49721 2.42679 2.50015 2.51639C2.50309 2.60599 2.53006 2.69315 2.57825 2.76875L6.49075 8.91687L2.63013 13.1669C2.58504 13.2153 2.55002 13.2722 2.52709 13.3343C2.50415 13.3963 2.49377 13.4623 2.49653 13.5284C2.49929 13.5945 2.51515 13.6594 2.54318 13.7194C2.57121 13.7793 2.61085 13.8331 2.65982 13.8776C2.70879 13.9221 2.7661 13.9564 2.82843 13.9786C2.89077 14.0008 2.95688 14.0104 3.02295 14.0068C3.08902 14.0033 3.15373 13.9867 3.21333 13.9579C3.27292 13.9292 3.32622 13.8889 3.37013 13.8394L7.04763 9.79438L9.57825 13.7712C9.62374 13.8417 9.68623 13.8996 9.75995 13.9395C9.83367 13.9795 9.91626 14.0003 10.0001 14H13.0001C13.0897 14 13.1776 13.9759 13.2546 13.9303C13.3317 13.8847 13.3951 13.8192 13.4382 13.7407C13.4813 13.6622 13.5026 13.5736 13.4997 13.4841C13.4969 13.3946 13.47 13.3075 13.422 13.2319ZM10.2745 13L3.91075 3H5.72325L12.0895 13H10.2745Z" fill="white"/>
</svg>
